<?xml version="1.0" encoding="UTF-8"?>
<svg version="1.1" viewBox="0 0 1500 367" xmlns="http://www.w3.org/2000/svg">
<g transform="translate(-.90909 .85411)">
<svg width="1500" height="367" data-background-color="#ffffff" viewBox="0 0 396 97" xmlns="http://www.w3.org/2000/svg" xmlns:xlink="http://www.w3.org/1999/xlink">
<g transform="translate(.24 -.22575)">
<svg width="395.52" height="97.451" viewBox="0 0 395.52 97.45149278952962">
<svg width="395.52" height="97.451" viewBox="0 0 581.73988553031 143.33389022082017">
<rect class="rect-qz-0" x="169.3" y="45.609" width="4.6766" height="52.117" rx="1%" fill="#fff" stroke="transparent" stroke-width="0" data-fill-palette-color="secondary" data-palette-color="#ffffff"/>
<g transform="translate(186.22 45.738)">
<svg width="395.52" height="51.857" viewBox="0 0 395.52 51.85741324921135">
<svg width="395.52" height="51.857" viewBox="0 0 395.52 51.85741324921135">
<svg width="395.52" height="51.857" viewBox="0 0 395.52 51.85741324921135">
<g>
<svg width="395.52" height="51.857" data-palette-color="#000000" viewBox="0.5 -32.75 253.58 33.25">
<path class="wordmark-text-0" d="m0.5-21.1q0-4.95 3-7.7t8.33-2.75q5.32 0 10.97 1l-1.15 8.8q-6.25-1.25-8.2-1.25t-1.95 1.2q0 0.45 0.3 0.62 0.3 0.18 0.45 0.28t0.58 0.25q0.42 0.15 0.7 0.27 0.27 0.13 1.8 0.75 1.52 0.63 2.3 1 0.77 0.38 2.12 1.23 3.9 2.55 3.9 7.5t-2.95 7.67q-2.95 2.73-8.47 2.73-5.53 0-10.83-1.35l0.7-8.45q6.7 1.7 9.05 1.7 1.55 0 1.55-1.1 0-0.5-0.37-0.8-0.38-0.3-1.1-0.65-0.73-0.35-2.13-0.93-1.4-0.57-2.35-1-0.95-0.42-2.25-1.32-4-2.75-4-7.7zm32.25 21.6q-7.1 0-7.1-6.8v-17.65h10.5v15.7q0 0.8 0.72 0.8 0.73 0 1.93-0.5v-16h10.45v23.85h-10v-1.25h-0.3q-2.9 1.85-6.2 1.85zm49.7-25.05q6.89 0 6.89 6.8v17.75h-10.54v-15.5q0-0.8-0.6-0.8-0.8 0-2 0.5v15.8h-10.55v-15.5q0-0.8-0.65-0.8-0.91 0-2 0.5v15.8h-10.4v-23.95h9.45l0.3 1.55q3.35-2.15 7.24-2.15 3.91 0 5.61 2.4 3.39-2.4 7.25-2.4zm39.74 0q6.9 0 6.9 6.8v17.75h-10.55v-15.5q0-0.8-0.6-0.8-0.8 0-2 0.5v15.8h-10.55v-15.5q0-0.8-0.65-0.8-0.9 0-2 0.5v15.8h-10.4v-23.95h9.45l0.3 1.55q3.35-2.15 7.25-2.15t5.6 2.4q3.4-2.4 7.25-2.4zm31.05 7.05-0.3 10q0 0.7 0.53 0.92 0.52 0.23 1.87 0.23l-0.95 6.65q-3 0.2-4.05 0.2-3.65 0-5.3-1.95h-0.35q-2.4 1.95-6.03 1.95-3.62 0-5.5-1.93-1.87-1.92-1.87-5.32 0-4.2 2.83-5.85 2.82-1.65 8.97-2.1v-0.9q0-0.9-0.95-0.9-2.55 0-8.75 1.55l-1.55-7.9q7.15-1.7 12.3-1.7t7.13 1.7q1.97 1.7 1.97 5.35zm-11.3 11.55q1.45 0 1.45-1.5v-1.9q-2.6 0.35-2.6 2 0 1.4 1.15 1.4zm25.5-7.45v13.4h-10.3v-23.95h8.9l0.3 1.6h0.2q1.2-1.1 2.75-1.53 1.55-0.42 4.55-0.42l-0.3 8.3h-3.4q-1.5 0-2.1 0.55t-0.6 2.05zm19.25-10.05v23.45h-10.4v-23.45h10.4zm-10.6-5.05q0-4.25 5.35-4.25t5.35 4.25q0 2.2-1.33 3.15-1.32 0.95-4.02 0.95t-4.03-0.93q-1.32-0.92-1.32-3.17zm34.04 21.05v7.45h-20.95l-0.25-5.65 7.85-10.45h-8.1v-7.85h20.95l0.3 5.25-7.65 11.25h7.85zm13.5-9.05q-1.05 0-1.45 0.65t-0.4 2h3.6v-0.8q0-1.85-1.75-1.85zm-12.15 4.45q0-5.95 3.13-9.23 3.12-3.27 9.2-3.27 6.07 0 8.6 2.5 2.52 2.5 2.52 7.15 0 1.85-0.4 5.6h-12.55q0.2 2.7 3.3 2.7 1.45 0 7.6-1.05l0.85 6.75q-5.3 1.4-9.9 1.4-6 0-9.17-3.3-3.18-3.3-3.18-9.25zm36.2-1.35v13.4h-10.3v-23.95h8.9l0.3 1.6h0.2q1.2-1.1 2.75-1.53 1.55-0.42 4.55-0.42l-0.3 8.3h-3.4q-1.5 0-2.1 0.55t-0.6 2.05z" data-fill-palette-color="primary"/>
</svg>
</g>
</svg>
</svg>
</svg>
</g>
<svg width="157.06" height="143.33" viewBox="0 0 157.05874910620398 143.33389022082017">
<svg class="icon-icon-0" x="8" width="141.06" height="143.33" enable-background="new 0 0 70 70" fill="#f59e0b" data-fill-palette-color="accent" version="1.1" viewBox="4 3.5 62 63" xml:space="preserve" xmlns="http://www.w3.org/2000/svg" xmlns:xlink="http://www.w3.org/1999/xlink"><path d="M10.041 44.479c-0.205 0.681-0.317 1.397-0.317 2.135 0 3.164 1.989 5.888 4.836 7.115v0.725c0 4.614 3.938 8.368 8.778 8.368 0.588 0 1.161-0.073 1.725-0.18C26.161 64.938 28.56 66.5 31.417 66.5c2.43 0 4.431-1.154 5.565-3H41c0.552 0 1-0.448 1-1v-4.533c2.845-0.599 5.601-1.739 8.057-3.336l3.206 3.206c0.188 0.188 0.442 0.293 0.707 0.293s0.52-0.105 0.707-0.293l5.66-5.66c0.391-0.391 0.391-1.023 0-1.414l-3.207-3.206c1.597-2.456 2.738-5.211 3.337-8.057H65c0.552 0 1-0.448 1-1v-8c0-0.552-0.448-1-1-1h-4.533c-0.599-2.845-1.74-5.601-3.337-8.056l3.207-3.207c0.391-0.391 0.391-1.023 0-1.414l-5.66-5.66c-0.375-0.375-1.039-0.375-1.414 0l-3.206 3.207C47.602 12.773 44.846 11.632 42 11.034V6.5c0-0.552-0.448-1-1-1h-4.882c-1.183-1.248-2.841-2-4.733-2-2.49 0-4.672 1.317-5.905 3.287h-1.848c-4.835 0-8.768 3.762-8.768 8.385v0.286c-4.188 0.366-7.486 3.887-7.486 8.168 0 1.802 0.594 3.464 1.586 4.818C6.055 29.92 4 33.073 4 36.32 4 40.009 6.529 43.326 10.041 44.479zM40 7.5v4.36c0 0.487 0.351 0.903 0.831 0.986 3.124 0.538 6.158 1.794 8.774 3.633 0.397 0.279 0.938 0.231 1.282-0.112l3.083-3.083 4.246 4.246-3.083 3.083c-0.344 0.344-0.391 0.884-0.112 1.282 1.839 2.618 3.096 5.652 3.634 8.774C58.737 31.149 59.153 31.5 59.64 31.5H64v6h-4.36c-0.487 0-0.903 0.351-0.985 0.831-0.538 3.123-1.794 6.157-3.634 8.774-0.279 0.397-0.232 0.938 0.112 1.282l3.083 3.083-4.246 4.246-3.083-3.083c-0.343-0.342-0.885-0.391-1.282-0.111-2.618 1.839-5.652 3.095-8.774 3.633C40.351 56.237 40 56.653 40 57.14V61.5h-2.207c0.128-0.55 0.202-1.128 0.202-1.737V49.45C45.802 48.933 52 42.435 52 34.5s-6.198-14.433-14.005-14.95v-9.124c0-1.06-0.21-2.045-0.582-2.926H40zM37.995 47.45V21.55C44.699 22.062 50 27.667 50 34.5S44.699 46.938 37.995 47.45zM10.438 29.994c1.409 1.135 3.197 1.818 5.145 1.818 0.552 0 1-0.448 1-1s-0.448-1-1-1c-3.421 0-6.205-2.775-6.205-6.186 0-3.421 2.784-6.205 6.205-6.205 1.654 0 3.207 0.644 4.374 1.813 0.391 0.391 1.023 0.391 1.414 0.002 0.391-0.391 0.392-1.023 0.002-1.415-1.239-1.241-2.808-2.025-4.509-2.291v-0.358c0-3.521 3.036-6.385 6.768-6.385h0.999c-0.134 0.539-0.213 1.1-0.213 1.68 0 0.315 0.023 0.618 0.058 0.921 0.064 0.548 0.563 0.951 1.108 0.878 0.549-0.063 0.942-0.56 0.878-1.108-0.026-0.227-0.044-0.455-0.044-0.691C26.418 7.729 28.646 5.5 31.385 5.5c2.671 0 4.61 2.072 4.61 4.926v49.337c0 2.789-1.883 4.737-4.578 4.737-2.803 0-4.999-2.063-4.999-4.696 0-0.699 0.153-1.407 0.441-2.047 0.228-0.503 0.004-1.096-0.499-1.322-0.503-0.227-1.095-0.003-1.323 0.499-0.411 0.909-0.619 1.875-0.619 2.87 0 0.314 0.029 0.619 0.071 0.92-0.379 0.06-0.764 0.097-1.151 0.098-3.738 0-6.779-2.857-6.778-6.368v-0.146c0.446 0.072 0.902 0.118 1.369 0.118 1.256 0 2.461-0.264 3.583-0.786 0.501-0.232 0.718-0.827 0.486-1.328-0.233-0.501-0.828-0.719-1.329-0.485-0.856 0.397-1.778 0.599-2.74 0.599-3.421 0-6.205-2.607-6.205-5.812 0-3.02 2.506-5.572 5.705-5.812 0.551-0.041 0.964-0.521 0.922-1.072-0.041-0.551-0.52-0.965-1.072-0.922-2.732 0.205-5.077 1.708-6.401 3.835C8.378 41.887 6 39.474 6 36.32 6 33.601 7.881 30.983 10.438 29.994z" data-fill-palette-color="accent"/><path d="m19.487 25.947c0.479 0.082 1.034 0.131 1.635 0.131 3.172 0 7.606-1.39 8.693-6.828 0.108-0.542-0.243-1.068-0.784-1.177-0.544-0.107-1.069 0.243-1.177 0.784-1.234 6.167-7.753 5.165-8.033 5.118-0.542-0.091-1.059 0.275-1.152 0.818-0.092 0.544 0.274 1.061 0.818 1.154z" data-fill-palette-color="accent"/><path d="m26.914 44.341c-2.156-1.24-4.37-0.65-4.465-0.624-0.53 0.146-0.839 0.691-0.696 1.222s0.692 0.847 1.222 0.707c0.404-0.106 4.013-0.896 5.318 4.05 0.118 0.448 0.523 0.745 0.967 0.745 0.084 0 0.17-0.011 0.256-0.033 0.534-0.141 0.853-0.688 0.711-1.222-0.607-2.3-1.722-3.93-3.313-4.845z" data-fill-palette-color="accent"/></svg>
</svg>
</svg>
</svg>
<rect width="395.52" height="97.451" fill="none" visibility="hidden"/>
</g>
</svg>
</g>
</svg>
